<svg xmlns="http://www.w3.org/2000/svg" xmlns:xlink="http://www.w3.org/1999/xlink" id="Capa_1" x="0" y="0" enable-background="new 0 0 511 511" version="1.1" viewBox="0 0 511 511" xml:space="preserve"><style type="text/css">.st0{fill:none}.st1{enable-background:new}</style><g><path d="M471.5,56h-432C17.7,56,0,73.7,0,95.5v320C0,437.3,17.7,455,39.5,455h432c21.8,0,39.5-17.7,39.5-39.5v-320 C511,73.7,493.3,56,471.5,56z M39.5,71h432C485,71,496,82,496,95.5V120H15V95.5C15,82,26,71,39.5,71z M471.5,440h-432 C26,440,15,429,15,415.5V135h481v280.5C496,429,485,440,471.5,440z"/><path d="M39.5,103c2,0,3.9-0.8,5.3-2.2c1.4-1.4,2.2-3.3,2.2-5.3s-0.8-3.9-2.2-5.3S41.5,88,39.5,88s-3.9,0.8-5.3,2.2 c-1.4,1.4-2.2,3.3-2.2,5.3s0.8,3.9,2.2,5.3C35.6,102.2,37.5,103,39.5,103z"/><path d="M63.5,103c2,0,3.9-0.8,5.3-2.2c1.4-1.4,2.2-3.3,2.2-5.3s-0.8-3.9-2.2-5.3c-1.4-1.4-3.3-2.2-5.3-2.2c-2,0-3.9,0.8-5.3,2.2 c-1.4,1.4-2.2,3.3-2.2,5.3s0.8,3.9,2.2,5.3C59.6,102.2,61.5,103,63.5,103z"/><path d="M87.5,103c2,0,3.9-0.8,5.3-2.2c1.4-1.4,2.2-3.3,2.2-5.3s-0.8-3.9-2.2-5.3c-1.4-1.4-3.3-2.2-5.3-2.2s-3.9,0.8-5.3,2.2 c-1.4,1.4-2.2,3.3-2.2,5.3s0.8,3.9,2.2,5.3C83.6,102.2,85.5,103,87.5,103z"/><path d="M366,192.4c-3.8-3.2-10.1-3.2-13.9,0s-3.8,8.4,0,11.6l87.7,73L352,350c-3.8,3.2-3.8,8.4,0,11.6c2,1.6,4.5,2.4,7,2.4 s5-0.8,7-2.4l94.6-78.8c3.8-3.2,3.8-8.4,0-11.6L366,192.4z"/><path d="M160.9,192.4c-4.2-3.2-11-3.2-15.2,0L42.6,271.2c-4.2,3.2-4.2,8.4,0,11.6l103.1,78.8c2.1,1.6,4.9,2.4,7.6,2.4 s5.4-0.8,7.6-2.4c4.2-3.2,4.2-8.4,0-11.6l-95.5-73l95.5-73C165.1,200.8,165.1,195.6,160.9,192.4z"/><path d="M119.5,103h304c4.1,0,7.5-3.4,7.5-7.5s-3.4-7.5-7.5-7.5h-304c-4.1,0-7.5,3.4-7.5,7.5S115.4,103,119.5,103z"/><path d="M455.5,103h16c4.1,0,7.5-3.4,7.5-7.5s-3.4-7.5-7.5-7.5h-16c-4.1,0-7.5,3.4-7.5,7.5S451.4,103,455.5,103z"/></g><rect width="26" height="145" x="212" y="219" class="st0"/><g class="st1"><path d="M250.6,238.4c0,5.3-1.2,9.6-3.4,13.3c-2.2,3.7-5,5.4-8.1,5.4s-5.8-1.9-8-5.4c-2.2-3.6-3.4-8-3.4-13.3 c0-1.1,0.1-2.9,0.3-4.7c-1.3-0.1-2.1-0.4-2.4-0.4c-4.3,0-6.5,3.4-6.5,9.9c0,3.4,1.3,11,3.8,22.9c2.5,11.9,3.8,21.1,3.8,27.8 c0,14.3-4.3,25.2-12.9,32.3c-6.5,5.3-14,7.9-22.5,7.9c-7.9,0-14.9-2-20.9-6c-8.6-5.6-12.8-14.3-12.8-26.1 c0-17.1,7.9-25.5,23.7-25.5h16.3l3.1,12.6H188c-3.2,0-6,1-8.3,3c-3.1,2.6-4.6,6.6-4.6,11.9c0,5.9,2.1,10.5,6.4,13.9 c3.2,2.6,6.8,3.7,10.5,3.7c4.7,0,8.7-1.9,11.8-5.9c3.7-4.3,5.5-10.8,5.5-18.9c0-5.6-1.2-13.8-3.5-24.4c-2.3-10.5-3.5-18.8-3.5-24.7 c0-19.2,8.8-28.7,26.5-28.7h10.5c2.9,0,5.5,1.9,7.7,5.4C249.3,228.6,250.6,233.2,250.6,238.4z"/><path d="M339,237.8c0,5.4-1.2,9.9-3.6,13.5c-2.2,3.6-4.9,5.2-7.9,5.2s-5.7-1.7-7.7-5.2l-14.2,72.3c-1.4,7-3.7,10.5-6.9,10.5 c-4.4,0-7.1-3.6-7.9-10.5l-7.1-61.8l-9.6,52.2c-1,5.4-2.9,9.7-5.7,12.9c-2.7,3.1-5.5,4.7-8.8,4.7h-20.2c1.3-5.8,2.3-9.7,3.2-12.2 c1.7-4.5,3.6-6.8,5.9-6.8c1.4,0,3.5,0.6,6.2,1.7c2.8,1.2,4.9,1.7,6.2,1.7c3,0,5.1-3.3,6.4-10.2l13.2-70.1c1.2-6,2.1-9.9,2.9-11.6 c1.4-3.2,3.5-4.7,6.4-4.7c4.3,0,7.1,5.7,8.3,16.7l5.9,53.8l8.8-45.7c3.2-16.9,8.2-25.3,14.9-25.3c3,0,5.7,1.7,7.9,5.2 C337.8,227.7,339,232.2,339,237.8z"/></g><g><polygon points="260 286 312 286 312 286" class="st0"/></g></svg>